PathFileType	4	(X/Y/Z)	C:/Users/beibeiliu/ov580/test_trc/User1\sequence.2_training_dense_right.trc
DataRate	CameraRate	NumFrames	NumMarkers	Units	OrigDataRate	OrigDataStartFrame	OrigNumFrames
120	120	25	19	mm	120	1	244
Frame#	Time	ThumbCMC			ThumbMCP			ThumbIP			ThumbTip			IndexMCP			IndexPIP			IndexTip			MiddleMCP			MiddlePIP			MiddleTip			RingMCP			RingPIP			RingTip			PinkyMCP			PinkyPIP			PinkyTip			BackHand1			BackHand2			BackHand3	
		X0	Y0	Z0	X1	Y1	Z1	X2	Y2	Z2	X3	Y3	Z3	X4	Y4	Z4	X5	Y5	Z5	X6	Y6	Z6	X7	Y7	Z7	X8	Y8	Z8	X9	Y9	Z9	X10	Y10	Z10	X11	Y11	Z11	X12	Y12	Z12	X13	Y13	Z13	X14	Y14	Z14	X15	Y15	Z15	X16	Y16	Z16	X17	Y17	Z17	X18	Y18	Z18	
0	0	130.425	61.202	28.886	103.863	43.4305	20.6657	84.3636	32.1405	5.06711	67.1857	22.7173	-2.54638	138.296	58.6506	-56.0277	134.628	55.5196	-84.4783	131.061	55.542	-105.26	170.639	65.9081	-64.2252	167.182	64.6773	-92.1695	172.51	63.2099	-122.473	194.451	60.2553	-57.8447	199.187	60.2406	-85.4077	206.612	58.1083	-110.699	219.499	46.3873	-37.8155	232.637	42.4	-52.4356	245.593	44.8736	-68.4983	190.504	73.2193	-7.27911	191.364	86.7299	25.4728	156.834	80.7108	9.70936	
1	0.00833333	128.037	61.3437	24.9278	108.533	44.4115	20.7085	85.6737	33.2538	3.58792	66.3908	25.1999	2.1954	138.797	58.9934	-55.6265	132.716	57.7999	-83.2155	134.58	56.5612	-109.077	167.537	66.6555	-62.7982	167.161	66.1876	-95.8343	172.508	65.1934	-124.131	193.141	61.626	-59.7884	204.134	61.3351	-81.2899	206.387	59.1895	-109.87	219.056	46.9915	-36.8962	233.892	43.116	-52.9073	244.493	44.7513	-73.3368	190.797	73.5508	-6.63754	192.236	86.4752	25.6426	156.553	82.0834	6.81955	
2	0.0166667	128.206	64.0987	30.3616	108.238	45.0339	18.6518	85.1563	35.0646	5.21012	68.4909	26.4054	-0.729306	139.821	60.4478	-55.8421	133.12	58.8358	-79.1657	136.146	57.8159	-105.687	168.326	68.489	-67.5032	167.484	67.9069	-94.9505	173.552	66.6382	-125.209	196.721	62.8666	-57.6604	200.987	62.3466	-81.3062	208.094	59.7022	-108.02	220.642	49.3042	-37.9381	233.367	43.8476	-49.9548	243.867	46.7836	-68.7928	192.232	75.0624	-7.42486	195.55	88.3149	23.0102	159.158	84.2142	8.33749	
3	0.025	126.976	63.6125	28.2668	106.928	46.64	22.4542	85.2866	35.33	4.18145	66.1835	26.3955	0.355002	138.094	60.8966	-53.2183	133.103	59.0595	-82.8168	137.33	58.9175	-106.717	172.337	69.3037	-64.6699	171.476	68.6735	-95.2481	175.81	66.7985	-122.666	195.351	64.5402	-58.9839	202.835	64.1381	-84.5386	206.82	60.6086	-108.318	220.489	50.2143	-36.2613	231.777	45.1413	-48.3024	247.858	47.7653	-70.3935	189.435	77.1898	-7.18127	194.347	87.1777	26.7873	155.412	82.5212	5.92509	
4	0.0333333	125.866	64.4863	27.783	107.685	46.922	21.8412	85.6013	36.5222	6.4097	66.6337	26.5921	0.0295799	139.461	61.8827	-56.2047	133.365	60.5532	-78.8144	137.742	58.8405	-105.294	167.726	69.3112	-60.5603	169.371	68.285	-94.326	172.461	67.7268	-120.043	194.425	63.3569	-53.3563	200.074	63.766	-84.6923	207.03	62.2246	-108.788	220.909	49.9153	-32.4132	234.521	45.3076	-51.299	247.994	46.8274	-69.4501	190.424	77.1117	-3.14072	197.205	89.4567	26.8718	161.12	83.7347	10.1234	
5	0.0416667	126.82	63.2642	27.4862	109.638	45.7308	21.2218	89.5839	35.7763	9.89786	69.7244	26.9033	2.903	137.065	60.6319	-53.6099	137.606	59.7658	-81.0604	131.656	59.5742	-106.661	170.608	68.723	-60.1589	172.059	68.5827	-89.9549	172.259	66.9886	-117.754	194.135	63.3428	-56.2184	203.05	64.0366	-80.2316	204.886	60.4156	-104.521	223.707	48.6265	-34.2973	231.304	45.2048	-48.4273	249.845	48.0003	-68.899	195.015	75.2938	-5.16201	194.864	87.0566	25.0883	160.999	82.479	6.92992	
6	0.05	128.849	63.0038	28.1954	106.466	47.2278	23.6902	83.9016	36.7087	9.66369	66.5826	27.35	5.97336	138.116	60.5946	-53.9536	132.24	59.5849	-80.6049	137.147	58.8897	-105.867	167.491	69.372	-61.0915	169.366	68.3943	-89.9255	172.763	67.0816	-119.616	197.99	63.9812	-55.2968	204.083	63.6658	-80.0085	208.471	60.7921	-103.691	219.803	49.5234	-32.6725	235.736	44.0808	-47.9891	249.775	46.9813	-69.0715	190.969	77.2196	-2.42214	192.14	87.6202	27.5878	158.331	82.2253	7.96779	
7	0.0583333	127.781	63.9065	32.5884	106.179	46.8829	23.3324	85.0656	36.4456	10.0619	65.2852	27.3004	3.68489	135.703	60.9536	-53.9391	134.919	58.5319	-82.5845	134.121	59.2075	-107.91	169.407	68.4103	-62.7345	169.412	67.8336	-91.4206	175.596	67.2558	-123.47	198.454	62.9786	-55.5607	205.103	63.4677	-80.9381	205.493	61.0148	-103.899	219.384	50.007	-31.1365	231.137	45.128	-46.3088	248.493	48.6191	-65.8775	189.786	77.1092	-6.746	192.413	88.7237	29.2391	155.669	83.3936	10.9008	
8	0.0666667	129.669	62.296	27.5701	106.293	46.3262	24.0326	87.8038	35.8044	10.8194	67.1627	26.2683	5.75527	137.843	59.9064	-55.1351	133.818	59.202	-80.4537	136.119	58.13	-103.241	170.094	68.5481	-61.1911	170.454	67.4295	-93.4079	172.6	65.9982	-117.295	194.541	63.6746	-51.8065	201.232	63.1503	-78.3639	207.502	61.5731	-106.314	221.443	49.8224	-32.0556	231.638	44.4568	-49.0399	247.801	46.7907	-63.0662	194.211	77.3019	-5.05484	195.651	87.5465	26.3294	159.452	82.4652	11.8307	
9	0.075	127.891	64.6206	32.519	105.907	45.6022	23.8131	86.6537	36.1702	11.3618	66.1122	26.9509	4.36133	139.85	60.8591	-55.0121	132.683	58.4139	-76.6659	134.698	57.6925	-105.971	166.647	69.6078	-63.5754	169.658	68.0294	-92.8514	171.234	67.3461	-117.803	195.437	64.0733	-51.7656	199.919	63.4389	-78.3989	205.343	61.2253	-104.707	223.437	49.939	-31.1516	232.447	45.3689	-47.7601	244.416	48.9975	-66.8919	189.278	75.5328	-1.80991	195.296	86.9582	25.6172	161.05	84.7618	12.1997	
10	0.0833333	129.814	64.5867	28.6177	103.304	46.985	22.1271	83.2533	35.7725	11.1655	65.9444	25.6699	2.91864	137.726	61.6604	-51.3675	131.795	59.4419	-80.9063	137.405	59.3116	-103.838	168.984	69.3578	-63.1454	171.739	69.3331	-89.2558	173.272	67.5606	-118.624	197.267	64.8429	-55.7083	201.376	64.6315	-79.4676	205.948	61.7361	-104.854	223.772	49.8497	-31.3328	232.125	45.8656	-48.2154	247.134	49.2475	-69.5718	189.464	77.1985	-0.767557	193.818	90.2145	28.7644	159.973	83.1053	12.6626	
11	0.0916667	129.169	64.8276	32.7641	108.984	46.6138	21.5575	83.3271	34.9646	6.9819	63.5848	25.7042	1.92725	135.719	61.3778	-54.198	134.121	60.3414	-81.0373	134.537	59.7514	-106.872	166.19	69.7498	-60.542	169.942	70.1888	-91.5771	169.86	68.9618	-119.763	196.214	66.2905	-55.5758	202.334	65.3448	-79.9302	205.204	61.9398	-107.905	221.061	50.8541	-37.2597	235.035	46.6775	-50.7126	248.417	48.8749	-67.6037	191.416	77.316	-6.60552	193.083	89.3973	26.7729	155.624	82.4788	8.32861	
12	0.1	127.054	64.9644	31.7369	108.224	46.4212	21.4575	87.4019	35.6486	10.6828	67.6208	26.821	4.24669	134.86	62.7131	-56.466	134.565	60.361	-81.0768	132.035	58.884	-102.589	166.032	71.067	-65.7074	171.857	69.5184	-94.3005	173.013	68.3102	-120.503	195.337	66.21	-57.359	204.256	65.7399	-83.417	203.846	63.2836	-108.004	223.678	51.8526	-35.978	233.005	47.2701	-50.7454	246.246	49.3033	-69.7067	189.773	79.7846	-5.95789	193.204	88.7189	25.7907	156.408	85.6344	11.1545	
13	0.108333	131.319	64.4632	28.1626	107.859	45.998	21.3391	88.5042	36.2539	8.13966	69.0748	27.3831	5.55993	139.84	62.126	-54.1218	136.469	60.7137	-80.9361	133.515	60.1111	-108.179	171.663	71.2361	-61.0892	171.763	70.3096	-90.1584	174.057	69.0285	-122.888	198.943	66.1108	-57.7456	198.764	65.2515	-81.6216	206.126	63.1097	-103.988	223.906	52.1744	-31.924	235.87	46.3887	-50.507	244.099	49.6702	-67.8034	190.548	79.2364	-2.59248	194.294	89.2098	24.6682	156.697	86.1012	11.2838	
14	0.116667	129.821	64.4024	28.4984	106.463	46.975	24.2844	88.1161	36.3507	8.94414	65.627	27.3185	1.64317	137.205	63.2643	-57.4145	136.721	60.1388	-83.4085	133.55	59.128	-105.635	167.528	70.494	-63.1005	172.41	70.0783	-89.4863	172.943	68.8508	-121.679	199.676	66.1693	-55.931	202.797	66.5495	-84.4761	205.903	63.9755	-108.947	222.616	51.8626	-32.8228	236.384	48.3281	-46.1937	248.3	50.695	-69.683	194.412	78.6382	-4.1408	193.027	90.2843	26.5575	158.233	83.6731	7.90095	
15	0.125	128.619	65.046	27.9803	108.958	45.9748	22.122	88.1561	35.9065	9.87648	70.1442	26.559	3.8516	137.399	63.3005	-56.603	134.42	59.8074	-83.3518	133.148	59.094	-106.209	169.372	70.7357	-65.5732	168.456	69.9384	-93.9629	171.12	69.2516	-120.258	195.6	66.8161	-57.7875	205.798	67.4077	-79.8528	209.106	64.678	-107.316	224.112	52.6502	-33.7739	236.296	48.2332	-47.8436	247.787	51.1055	-69.4119	196.207	80.4218	-3.6779	197.519	90.9189	23.8899	159.587	84.5517	11.1457	
16	0.133333	132.974	63.8692	28.6662	108.009	45.1861	21.8313	89.5995	33.3756	5.23251	69.6043	23.7426	1.62212	137.945	63.6266	-57.3069	133.684	60.5758	-81.6619	137.103	59.542	-109.003	168.897	72.2925	-61.9611	169.569	70.5549	-91.0983	176.971	68.6711	-119.536	196.125	67.1255	-53.1765	203.882	66.9772	-83.5777	207.86	64.7103	-108.97	223.965	53.7295	-31.8349	236.139	47.4156	-51.9809	248.216	50.5273	-71.8813	194.506	80.9777	-2.81534	197.76	91.6195	27.8729	161.157	84.4054	12.4816	
17	0.141667	130.222	63.873	27.8778	110.888	42.6452	17.9943	89.9287	32.6713	9.50322	72.7338	22.3201	2.83509	140.682	65.8007	-57.9593	137.287	63.1517	-82.6958	137.561	60.2784	-106.821	172.136	74.0298	-64.9449	172.427	72.912	-94.6727	172.961	70.5626	-122.29	195.738	69.6855	-56.9988	206.229	68.5085	-85.8652	206.182	64.7086	-107.997	223.933	54.4932	-37.5901	236.944	48.7146	-53.3009	250.352	52.2971	-69.2167	196.108	82.0173	-3.1179	197.949	91.7903	30.1702	158.53	84.8632	12.9539	
18	0.15	129.745	63.7932	32.3597	111.516	41.9878	17.783	92.1129	30.3045	8.54039	73.7431	18.1032	-1.28657	137.885	68.8335	-54.5709	137.019	67.0754	-80.0736	139.03	64.7251	-109.806	169.149	78.4203	-65.6752	173.572	76.4464	-90.6192	178.234	72.4783	-123.385	200.436	73.1782	-53.3556	203.892	73.0375	-81.9219	207.119	66.4139	-109.71	223.065	58.0911	-35.2966	235.535	51.6176	-56.0019	246.849	52.288	-71.1266	192.113	83.4027	-4.00736	195.17	89.4648	29.3078	161.538	87.0023	12.7834	
19	0.158333	130.416	62.5914	28.2433	115.647	40.7501	12.7368	99.286	28.3517	1.36825	80.2843	14.8016	-9.18727	139.316	72.7496	-52.9762	135.979	71.972	-81.6284	135.107	68.0261	-106.728	173.99	82.578	-65.6868	173.286	80.0192	-94.1531	175.638	74.6665	-125.261	199.379	78.2417	-58.649	201.23	77.1322	-85.93	206.376	68.0302	-113.417	220.883	61.6085	-36.8606	233.461	55.82	-55.3908	242.419	56.2982	-80.6793	191.885	86.3641	-5.39924	197.085	92.1898	27.2036	162.503	88.8898	15.5106	
20	0.166667	134.468	62.0263	25.2991	118.445	40.4927	13.3646	98.5625	26.5292	-3.36537	89.1656	14.6683	-19.4499	142.942	79.0695	-55.6266	135.073	77.37	-82.2203	136.17	70.9945	-108.623	169.538	87.0767	-62.0167	172.294	84.959	-92.0639	171.684	75.3735	-126.699	197.088	83.2335	-58.6243	200.324	80.376	-88.4116	207.294	70.369	-110.271	224.921	65.3133	-39.0592	232.818	59.3473	-56.2546	241.326	56.6272	-81.2615	197.858	90.0079	0.135984	199.658	94.3129	31.3703	158.11	89.715	11.9201	
21	0.175	132.34	63.5764	24.91	119.645	40.8289	6.13095	100.325	28.345	-9.60436	90.7793	15.533	-22.4778	140.061	84.5803	-58.2674	135.453	83.1667	-80.8298	136.452	73.4293	-112.633	170.226	91.6138	-64.5871	167.413	86.8772	-96.3019	171.615	75.3181	-125.326	198.682	86.9593	-59.8055	200.319	83.0052	-85.4158	203.953	70.6805	-110.977	222.784	68.9414	-43.2432	227.329	62.2877	-61.9182	232.613	58.1323	-86.2701	192.329	92.4187	1.61711	198.135	93.4792	32.4936	162.79	93.3236	16.476	
22	0.183333	133.429	64.1702	24.7568	121.262	41.8328	7.4946	103.344	31.0325	-15.9721	92.665	17.3434	-30.5895	138.575	88.5383	-57.323	136.519	84.2177	-84.6892	139.143	74.8761	-110.44	172.271	93.222	-61.3065	171.087	88.0791	-94.3127	170.938	72.3783	-125.975	198.09	88.4107	-55.987	198.035	84.4551	-87.3201	202.058	68.9729	-111.809	217.781	72.2632	-44.9649	226.918	64.7568	-62.4575	225.285	60.1692	-90.2744	192.44	94.8091	-2.53867	196.372	92.6264	35.1378	161.546	93.6687	14.1731	
23	0.191667	131.45	63.4148	27.6434	120.033	41.9419	5.78275	107.609	31.9928	-14.1363	91.4408	17.5962	-30.4386	140.874	90.2963	-53.0172	133.778	86.9721	-83.9264	139.958	75.4835	-108.649	166.937	95.8175	-60.5158	168.804	89.6376	-94.218	169.168	74.325	-121.895	194.741	89.6791	-58.045	198.517	83.9677	-90.6654	194.723	66.355	-114.135	217.753	74.51	-44.6001	221.051	69.6399	-61.8554	224.238	59.4103	-89.3172	193.638	94.4046	-2.41229	197.064	95.2765	35.3275	160.657	94.7826	19.386	
24	0.2	133.049	64.8632	24.8458	120.559	43.5381	4.21012	103.651	31.6973	-13.6207	91.507	19.3652	-34.7127	137.696	90.1586	-56.5445	135.365	86.6888	-83.7801	137.711	72.9686	-109.741	170.037	95.8572	-60.7513	166.41	90.1358	-93.9318	167.928	71.3002	-124.068	190.804	91.8499	-60.6402	195.085	84.2563	-89.0982	194.262	67.4105	-109.424	216.146	75.8394	-42.279	220.496	68.256	-66.9702	223.615	60.5021	-86.6346	191.084	97.2079	-0.972408	196.066	95.2165	36.8303	157.168	93.8082	19.8986	
